<?xml version="1.0" standalone="no"?>
<!DOCTYPE svg PUBLIC "-//W3C//DTD SVG 20010904//EN"
 "http://www.w3.org/TR/2001/REC-SVG-20010904/DTD/svg10.dtd">
<svg version="1.0" xmlns="http://www.w3.org/2000/svg"
 width="300.000000pt" height="300.000000pt" viewBox="0 0 1280.000000 1280.000000"
 preserveAspectRatio="xMidYMid meet">

<g transform="translate(0.000000,1280.000000) scale(0.100000,-0.100000)"
fill="#000000" stroke="none">
<path d="M6247 10033 c-4 -3 -3 -11 2 -17 8 -10 18 -100 36 -301 8 -83 27 -98
-174 133 -113 128 -148 162 -167 162 l-25 0 20 -29 c18 -24 23 -58 36 -222 14
-181 14 -195 -2 -206 -14 -11 -10 -13 27 -13 42 0 43 1 24 15 -19 13 -22 31
-34 185 -7 94 -10 173 -7 176 2 3 75 -77 162 -176 86 -100 159 -179 162 -177
2 3 -4 105 -13 227 -16 215 -16 224 2 237 16 12 15 13 -12 13 -17 0 -34 -3
-37 -7z"/>
<path d="M6602 10007 c-120 -44 -184 -191 -133 -309 24 -57 98 -122 156 -138
56 -16 130 -8 183 19 42 21 52 41 52 103 0 25 6 40 18 47 13 8 9 10 -24 11
-27 0 -42 -4 -41 -12 0 -7 -1 -37 -1 -66 l-2 -53 -52 -24 c-67 -31 -82 -31
-142 3 -71 39 -108 102 -113 196 -4 61 -1 77 19 116 31 58 92 101 151 107 38
5 54 1 91 -21 25 -15 57 -43 71 -64 l26 -37 -3 40 c-3 36 -7 41 -57 67 -59 31
-138 37 -199 15z"/>
<path d="M5720 9973 c-31 -6 -51 -23 -27 -23 9 0 17 -4 17 -8 0 -5 9 -57 21
-118 11 -60 29 -152 39 -204 13 -70 15 -99 7 -108 -9 -11 -4 -12 29 -6 47 8
50 10 36 27 -12 14 -51 201 -73 345 -11 71 -11 85 2 93 11 7 10 8 -6 7 -11 0
-31 -3 -45 -5z"/>
<path d="M5270 9856 c-68 -21 -73 -24 -52 -35 12 -6 22 -17 22 -23 0 -6 25
-96 56 -200 44 -148 54 -191 44 -203 -10 -12 -6 -12 27 -3 51 14 57 18 39 31
-8 7 -19 28 -24 47 -5 19 -13 42 -17 52 -5 12 1 18 27 23 46 10 119 49 145 77
26 28 43 70 43 106 0 42 -43 114 -81 134 -46 24 -134 22 -229 -6z m200 -15
c63 -44 80 -155 34 -211 -28 -33 -84 -66 -123 -71 -23 -4 -26 3 -66 136 -23
77 -41 142 -39 144 2 2 27 10 56 17 61 14 102 10 138 -15z"/>
<path d="M7414 9860 c-32 -13 -64 -59 -64 -93 0 -26 16 -46 93 -122 54 -53 97
-103 101 -119 16 -64 -57 -124 -134 -111 -52 9 -83 35 -113 95 l-25 51 -7 -31
c-18 -80 124 -155 230 -120 69 23 97 117 56 184 -11 18 -54 62 -95 100 -82 73
-91 96 -56 134 16 17 32 22 70 22 63 0 104 -32 123 -98 l13 -47 11 32 c11 30
9 36 -15 64 -46 55 -132 82 -188 59z"/>
<path d="M5003 9758 c-27 -13 -26 -3 -9 -253 7 -99 11 -182 10 -183 -1 -2 -80
57 -175 132 -95 75 -176 136 -179 136 -3 0 -12 -5 -20 -10 -12 -7 -9 -14 18
-41 41 -40 185 -335 179 -366 -5 -27 -4 -27 33 -8 34 17 39 27 13 23 -14 -2
-34 30 -90 142 -39 80 -69 147 -67 149 2 2 56 -39 121 -91 65 -51 133 -105
152 -118 l34 -24 -7 115 c-3 63 -9 161 -11 219 l-5 105 85 -170 c53 -106 83
-176 79 -187 -5 -17 -1 -16 42 4 34 17 41 24 27 26 -15 2 -43 50 -112 193 -51
105 -90 197 -87 205 6 16 0 17 -31 2z"/>
<path d="M7860 9657 c-54 -17 -134 -103 -148 -159 -15 -60 -15 -74 3 -135 29
-98 121 -162 233 -163 34 0 62 2 62 4 0 2 3 12 7 21 5 14 3 16 -13 7 -20 -10
-68 -16 -121 -13 -41 1 -85 40 -112 97 -47 98 -10 237 78 299 38 26 51 30 113
30 69 0 70 0 109 -42 23 -25 44 -60 51 -87 10 -39 13 -43 25 -28 22 30 14 52
-40 106 -71 71 -154 92 -247 63z"/>
<path d="M4433 9455 c-26 -23 -27 -24 -7 -25 16 0 43 -31 104 -117 102 -143
117 -179 102 -231 -37 -122 -194 -149 -260 -44 -9 15 -50 74 -91 130 -45 63
-71 108 -67 118 5 12 1 12 -25 -3 -35 -20 -61 -47 -38 -38 10 4 46 -38 112
-130 54 -74 109 -142 122 -151 45 -29 99 -29 160 0 57 28 84 58 103 114 15 44
-4 106 -57 179 -125 173 -132 184 -126 204 8 25 2 24 -32 -6z"/>
<path d="M6165 9473 c-550 -45 -1062 -226 -1505 -531 -723 -498 -1190 -1257
-1316 -2137 -21 -146 -29 -494 -15 -658 52 -622 288 -1206 680 -1686 510 -626
1228 -1022 2031 -1122 137 -18 572 -18 710 -1 418 52 823 185 1169 384 253
146 446 293 652 498 500 499 802 1119 891 1830 17 137 17 572 -1 710 -127
1021 -728 1889 -1641 2373 -338 180 -763 304 -1145 337 -110 9 -415 11 -510 3z
m673 -42 c275 -44 535 -115 712 -193 446 -197 702 -368 1011 -677 390 -391
648 -833 794 -1361 78 -283 110 -562 102 -885 -9 -339 -60 -618 -170 -930
-178 -504 -482 -949 -887 -1299 -432 -373 -960 -621 -1505 -706 -38 -6 -83
-13 -99 -16 -144 -24 -483 -31 -671 -14 -697 66 -1349 365 -1843 844 -330 320
-515 593 -720 1056 -79 178 -150 444 -199 745 -26 158 -26 652 0 810 66 406
154 682 314 994 155 300 340 548 590 791 216 211 403 351 652 489 372 207 743
321 1221 375 19 2 154 3 300 1 213 -2 291 -7 398 -24z"/>
<path d="M7178 7915 c-198 -50 -391 -194 -522 -389 -134 -200 -186 -406 -186
-742 l0 -114 -75 0 -75 0 0 165 0 165 -70 0 -70 0 0 -156 0 -156 -27 6 c-79
19 -168 89 -206 161 -32 61 -30 165 4 230 44 84 133 128 224 111 31 -6 34 -9
25 -26 -24 -44 3 -90 52 -90 46 0 71 47 48 91 -25 46 -153 73 -240 49 -67 -18
-133 -88 -155 -164 -48 -163 35 -316 206 -381 l71 -27 -5 -482 c-5 -504 -9
-561 -54 -721 -66 -236 -228 -421 -440 -501 -91 -34 -123 -39 -253 -38 -211 3
-379 73 -525 219 -127 127 -198 286 -212 472 -22 294 150 589 422 725 83 42
181 68 253 68 45 0 52 3 52 20 0 11 -1 20 -3 20 -1 0 -40 -5 -86 -10 -378 -48
-671 -386 -671 -775 0 -339 205 -624 526 -733 181 -62 397 -55 558 18 234 105
435 334 525 599 49 143 56 233 53 684 l-3 417 74 0 74 0 6 -112 c4 -62 7 -247
7 -410 l0 -298 70 0 70 0 0 410 0 410 104 0 c115 0 155 -10 163 -40 10 -39 21
-19 25 46 4 81 -4 96 -30 63 -19 -23 -27 -24 -143 -27 l-122 -4 6 239 c4 131
11 261 16 288 5 28 12 65 15 82 12 67 59 200 89 253 125 226 358 369 600 370
234 0 469 -108 602 -278 216 -275 216 -647 0 -927 -61 -79 -77 -94 -155 -152
-105 -78 -215 -120 -343 -132 -47 -4 -72 -11 -75 -20 -8 -25 149 -8 245 26
120 43 187 87 288 188 129 129 187 235 221 405 19 98 15 248 -10 345 -23 86
-97 230 -155 301 -89 109 -249 210 -396 250 -84 23 -312 28 -387 9z"/>
<path d="M8342 9463 c2 -22 -237 -360 -256 -365 -8 -2 2 -14 24 -30 30 -21 37
-23 33 -9 -4 17 117 202 137 209 5 2 33 -34 63 -80 29 -46 61 -89 70 -97 9 -7
17 -18 17 -23 0 -16 -90 -137 -105 -140 -8 -2 1 -14 24 -30 37 -27 38 -27 35
-5 -5 32 235 363 261 360 17 -1 16 1 -5 18 -50 39 -57 41 -63 11 -3 -15 -35
-67 -70 -115 l-64 -88 -32 38 c-18 21 -52 69 -77 107 l-44 69 46 63 c32 45 52
64 67 64 22 0 22 1 -3 21 -45 36 -59 41 -58 22z"/>
<path d="M3979 9104 c-18 -19 -27 -33 -18 -29 11 4 47 -28 121 -107 58 -63
115 -129 127 -148 52 -87 -6 -162 -96 -125 -26 11 -40 12 -47 5 -19 -19 16
-31 77 -27 72 4 97 26 104 90 8 72 -10 105 -127 230 -71 76 -107 123 -104 132
9 23 1 18 -37 -21z"/>
<path d="M8720 9045 c-100 -32 -164 -121 -163 -226 2 -180 186 -293 344 -211
171 89 169 329 -3 415 -69 35 -119 41 -178 22z m163 -29 c74 -27 107 -80 107
-170 -1 -123 -102 -236 -213 -236 -87 0 -138 29 -168 95 -35 76 -16 170 48
245 62 72 142 96 226 66z"/>
<path d="M9125 8591 c-118 -29 -199 -148 -180 -263 24 -144 164 -236 300 -198
58 16 128 78 150 132 23 56 22 145 -1 194 -28 58 -89 112 -147 129 -54 16 -75
17 -122 6z m175 -51 c114 -58 114 -216 1 -321 -62 -58 -116 -74 -191 -58 -88
19 -140 83 -140 174 0 76 93 196 172 223 44 15 109 7 158 -18z"/>
<path d="M3512 8414 c-95 -67 -46 -204 73 -204 63 0 117 72 101 136 -4 15 -20
39 -36 55 -23 23 -37 29 -72 29 -24 0 -54 -7 -66 -16z m138 -41 c29 -37 26
-79 -9 -114 -78 -77 -207 21 -145 110 39 54 113 56 154 4z"/>
<path d="M9579 8144 c0 -15 -44 -41 -189 -113 -108 -53 -196 -91 -205 -88 -8
4 -15 3 -15 0 0 -5 118 -243 124 -250 1 -1 12 0 24 4 l23 6 -23 11 c-19 9
-117 174 -106 179 1 1 89 45 195 98 140 69 197 93 208 86 13 -7 12 0 -6 35
-27 54 -29 56 -30 32z"/>
<path d="M3036 7792 c-3 -5 29 -21 70 -37 42 -16 74 -34 74 -42 0 -7 -7 -30
-15 -50 -18 -43 -20 -114 -2 -135 23 -29 61 -48 96 -48 42 0 92 49 114 112 8
24 18 50 22 59 5 14 -13 25 -102 59 -59 23 -136 52 -170 66 -67 26 -79 28 -87
16z m260 -109 c41 -16 74 -30 74 -33 0 -3 -15 -34 -33 -70 -31 -63 -33 -65
-74 -68 -35 -3 -48 2 -68 22 -14 14 -25 35 -25 47 0 33 32 129 43 129 6 0 43
-12 83 -27z"/>
<path d="M2920 7488 c0 -7 27 -30 60 -52 33 -21 60 -39 60 -41 0 -1 -4 -15
-10 -31 -5 -16 -14 -48 -20 -71 l-11 -43 -49 0 c-27 0 -61 -5 -77 -12 l-28
-12 29 -4 c29 -4 253 13 342 25 49 6 56 21 22 42 -13 7 -87 58 -164 112 -78
55 -144 99 -148 99 -3 0 -6 -6 -6 -12z m277 -220 c-12 -3 -55 -6 -94 -7 -80
-1 -81 0 -62 60 6 19 13 40 15 47 2 8 31 -6 83 -40 69 -46 77 -54 58 -60z"/>
<path d="M9511 7336 c-70 -39 -67 -151 6 -204 l28 -20 -23 -24 c-21 -23 -30
-58 -15 -58 4 0 22 14 40 32 31 30 34 31 74 19 46 -14 66 -7 25 9 -15 5 -32
10 -37 10 -19 0 -7 18 59 83 l69 68 48 -25 c91 -49 156 -22 141 59 -13 70 -93
87 -164 35 l-41 -29 -57 29 c-61 32 -114 38 -153 16z m151 -36 l45 -20 -76
-75 c-85 -85 -103 -88 -134 -22 -21 43 -12 73 33 110 38 32 72 34 132 7z m230
3 c27 -24 23 -61 -8 -73 -29 -11 -66 -5 -106 18 l-27 16 42 28 c48 32 73 35
99 11z"/>
<path d="M2884 7052 c-79 -37 -110 -112 -79 -190 10 -23 23 -42 31 -42 18 0
17 10 -1 34 -19 25 -19 89 0 125 33 64 159 82 251 36 55 -27 75 -57 81 -116 4
-30 -2 -43 -27 -72 -30 -35 -26 -63 6 -36 48 40 59 134 21 190 -51 76 -194
112 -283 71z"/>
<path d="M2760 6455 l0 -185 195 0 c107 0 195 4 195 9 0 11 -125 21 -257 21
l-103 0 0 70 0 70 180 0 c179 0 236 11 119 24 -34 3 -115 6 -180 6 l-119 0 0
76 0 77 180 -8 c161 -6 180 -5 180 9 0 14 -23 16 -195 16 l-195 0 0 -185z"/>
<path d="M9560 6575 c0 -49 2 -56 13 -43 8 11 37 17 95 21 l82 6 0 -93 c0 -66
-4 -96 -12 -99 -7 -3 5 -6 27 -6 32 0 36 2 23 10 -15 8 -18 25 -18 99 l0 90
125 0 125 0 0 -102 c0 -72 -5 -112 -15 -132 -13 -25 -13 -28 1 -22 9 3 20 6
25 6 5 0 9 31 9 68 0 109 -12 254 -20 241 -6 -8 -71 -13 -220 -17 -199 -5
-214 -4 -227 13 -11 17 -13 12 -13 -40z"/>
<path d="M9550 6143 c0 -33 3 -43 9 -34 8 13 37 13 208 2 117 -8 209 -18 226
-26 22 -11 27 -11 27 0 0 7 3 28 7 46 6 31 5 33 -11 20 -18 -15 -36 -14 -301
9 -71 6 -134 16 -139 21 -19 18 -26 8 -26 -38z"/>
<path d="M2963 6082 c-116 -17 -183 -30 -183 -38 0 -10 47 -34 210 -105 30
-13 79 -35 108 -49 l54 -25 -159 -19 c-88 -10 -166 -22 -174 -27 -28 -17 4
-21 83 -10 46 6 117 15 158 21 124 17 140 20 140 31 0 10 -22 21 -248 120 -68
29 -119 55 -115 56 4 1 77 11 161 22 84 11 157 23 162 26 11 7 4 26 -8 24 -4
-1 -89 -13 -189 -27z"/>
<path d="M9976 5883 c3 -21 1 -58 -3 -83 -8 -42 -11 -45 -38 -44 -51 1 -368
64 -397 79 -26 13 -28 12 -28 -8 0 -12 -3 -33 -6 -47 -4 -19 -3 -21 4 -11 9
13 22 13 99 -1 48 -9 142 -27 208 -39 66 -12 123 -25 128 -28 12 -11 -11 -113
-32 -142 -19 -26 -19 -26 3 -22 20 4 25 20 55 178 19 96 31 181 28 189 -12 30
-25 16 -21 -21z"/>
<path d="M3046 5641 c-99 -26 -181 -52 -184 -59 -5 -16 -1 -15 86 7 39 11 74
16 76 13 2 -4 11 -32 21 -62 29 -92 77 -124 150 -100 46 15 65 44 65 98 0 44
-18 132 -29 143 -3 4 -87 -14 -185 -40z m182 -26 c20 -74 16 -111 -14 -134
-34 -27 -88 -27 -114 -1 -17 17 -57 127 -48 135 3 3 140 41 158 44 3 1 11 -19
18 -44z"/>
<path d="M9431 5488 c-14 -40 -14 -40 7 -27 16 10 49 1 185 -46 92 -32 167
-59 167 -61 0 -2 -60 -21 -132 -44 -73 -23 -177 -55 -230 -72 -54 -17 -98 -33
-98 -37 0 -4 95 -40 210 -80 172 -60 210 -77 210 -92 0 -27 17 -23 24 5 3 13
9 32 12 43 6 15 4 16 -7 6 -20 -20 -32 -17 -208 44 l-164 57 119 37 c65 20
171 53 235 73 93 29 118 40 122 57 5 18 2 20 -23 14 -35 -8 -376 108 -402 136
-15 18 -17 18 -27 -13z"/>
<path d="M3260 5310 c-25 -11 -99 -40 -165 -66 -66 -25 -121 -47 -122 -48 -8
-7 56 -143 78 -167 58 -62 179 -15 179 69 0 10 -9 45 -20 77 -11 32 -20 63
-20 69 0 6 34 24 75 39 41 16 75 32 75 38 0 14 -31 10 -80 -11z m-78 -121 c25
-66 23 -125 -4 -143 -63 -40 -109 -23 -146 57 -35 75 -35 76 43 107 39 15 75
27 80 26 6 -2 18 -23 27 -47z"/>
<path d="M9203 4938 c-59 -110 -69 -135 -59 -150 10 -17 12 -15 17 14 5 31 55
137 86 185 l15 23 67 -37 c36 -20 70 -40 75 -44 13 -11 -72 -159 -92 -159 -12
-1 -10 -5 8 -15 32 -18 41 -19 34 -1 -4 10 54 145 71 164 2 2 53 -23 113 -55
l111 -58 -47 -89 c-26 -48 -57 -96 -69 -106 -22 -17 -21 -30 2 -30 9 0 155
256 155 273 0 3 -7 4 -15 1 -15 -6 -371 178 -391 202 -9 11 -27 -15 -81 -118z"/>
<path d="M3510 4811 c0 -5 9 -12 19 -16 11 -3 34 -22 51 -41 40 -46 39 -97 -2
-127 -37 -28 -72 -15 -113 39 -41 53 -61 47 -29 -9 51 -90 17 -167 -70 -157
-56 6 -103 80 -93 150 4 30 2 40 -9 40 -21 0 -18 -97 5 -140 10 -19 33 -46 52
-58 65 -45 153 -8 165 69 6 35 8 37 30 29 42 -16 109 23 119 70 9 41 -27 113
-69 140 -36 22 -56 26 -56 11z"/>
<path d="M9033 4631 c-48 -35 -83 -102 -83 -158 0 -52 36 -98 89 -114 49 -15
87 -3 195 62 89 54 105 58 129 32 26 -30 30 -68 11 -108 -23 -48 -53 -66 -121
-74 l-57 -6 27 -18 c26 -17 29 -17 71 1 59 26 98 80 104 142 4 44 2 52 -26 80
-48 48 -67 44 -215 -42 -34 -20 -74 -39 -89 -43 -38 -10 -84 18 -98 59 -27 82
36 169 130 182 41 5 48 9 39 20 -19 23 -63 16 -106 -15z"/>
<path d="M3675 4473 c-35 -10 -122 -70 -143 -100 -81 -114 -23 -253 108 -253
56 0 100 20 156 72 71 65 90 129 60 202 -25 60 -112 98 -181 79z m120 -45 c67
-52 65 -139 -4 -207 -72 -71 -158 -92 -221 -54 -50 29 -66 104 -35 163 16 32
88 94 126 109 44 18 104 13 134 -11z"/>
<path d="M8792 4302 c-36 -11 -91 -60 -112 -102 -43 -83 -12 -167 70 -191 41
-13 100 2 190 46 71 35 97 38 120 15 26 -26 26 -75 0 -117 -27 -46 -54 -56
-123 -50 l-60 5 26 -26 c24 -24 28 -25 67 -13 51 15 106 69 121 121 11 35 10
46 -4 76 -31 65 -80 67 -215 9 -94 -41 -131 -44 -168 -12 -21 18 -27 32 -27
64 0 84 68 146 160 146 41 0 42 1 26 19 -17 19 -32 21 -71 10z"/>
<path d="M3886 4051 c-92 -92 -134 -141 -126 -146 8 -5 38 18 81 61 l69 69 72
-73 73 -72 -70 -70 c-63 -63 -80 -91 -44 -74 26 13 263 264 256 271 -4 4 -34
-20 -67 -52 l-60 -59 -70 69 c-39 38 -70 74 -70 79 0 6 25 36 56 67 31 31 52
59 47 62 -5 3 -71 -56 -147 -132z"/>
<path d="M4245 3774 c-39 -151 -41 -157 -72 -172 -29 -14 -34 -14 -58 2 -33
22 -44 13 -19 -15 28 -31 76 -20 175 39 46 27 117 68 157 92 50 29 71 45 64
52 -7 7 -19 4 -39 -9 -46 -32 -214 -125 -217 -122 -2 2 11 57 29 121 40 139
43 160 30 165 -6 2 -28 -63 -50 -153z"/>
<path d="M8231 3634 c-31 -22 -52 -75 -45 -113 4 -18 22 -45 42 -62 31 -28 40
-31 81 -26 96 11 134 109 70 182 -27 31 -37 35 -78 35 -27 0 -56 -7 -70 -16z
m98 -5 c71 -25 81 -137 14 -168 -59 -27 -123 2 -139 63 -8 32 22 86 57 103 30
16 29 16 68 2z"/>
<path d="M4720 3573 c-149 -265 -166 -299 -157 -305 7 -4 20 9 32 30 12 20 34
58 49 84 l27 47 33 -16 c34 -16 34 -16 40 -102 8 -104 17 -153 32 -158 7 -2 8
16 3 59 -4 35 -9 89 -12 122 l-4 58 69 45 c47 31 77 43 96 41 19 -2 27 2 27
12 0 31 -49 21 -123 -25 -41 -25 -78 -45 -84 -45 -5 0 -23 8 -38 17 l-29 16
40 73 c23 42 36 75 30 78 -6 4 -20 -10 -31 -31z"/>
<path d="M5075 3399 c-77 -45 -125 -131 -125 -228 0 -62 1 -65 44 -107 39 -40
48 -44 92 -44 57 0 100 22 138 72 75 99 73 234 -6 291 -31 23 -115 32 -143 16z
m110 -25 c46 -21 67 -58 68 -114 1 -84 -50 -177 -114 -206 -37 -16 -45 -16
-82 -3 -53 18 -87 67 -87 123 0 45 45 150 76 178 43 38 90 46 139 22z"/>
<path d="M7540 3155 c0 -161 3 -206 13 -202 8 3 12 27 11 75 l0 71 70 26 c69
26 71 26 86 8 68 -84 81 -96 89 -88 9 10 -233 305 -257 313 -9 3 -12 -44 -12
-203z m88 89 c29 -34 52 -66 52 -71 0 -8 -93 -43 -113 -43 -4 0 -7 44 -7 97 0
53 4 93 8 88 5 -6 32 -38 60 -71z"/>
<path d="M5460 3285 c0 -3 -21 -85 -46 -182 -30 -117 -42 -179 -36 -185 12
-12 13 -6 64 195 18 72 34 125 35 117 1 -8 6 -62 12 -120 19 -175 22 -190 34
-190 7 0 50 57 95 126 46 69 85 124 88 122 2 -2 -12 -60 -30 -128 -44 -169
-48 -190 -33 -190 7 0 30 72 58 184 43 170 45 185 28 189 -14 4 -38 -26 -108
-131 -103 -155 -94 -159 -111 47 -6 74 -13 138 -16 143 -6 9 -34 11 -34 3z"/>
<path d="M7216 3259 c-60 -16 -112 -31 -114 -34 -14 -14 14 -17 60 -6 28 6 55
8 60 3 5 -5 26 -80 48 -167 22 -88 44 -163 49 -168 22 -22 16 22 -25 178 -24
94 -44 173 -44 176 0 4 27 12 60 18 33 7 58 16 55 22 -9 13 -28 11 -149 -22z"/>
<path d="M6862 3190 c-29 -4 -56 -11 -59 -14 -6 -5 31 -297 44 -353 3 -13 11
-23 17 -23 10 0 10 17 1 81 -9 58 -9 82 -1 84 6 2 37 9 68 15 73 14 108 47
108 101 0 94 -54 128 -178 109z m124 -35 c12 -8 24 -28 27 -45 14 -66 -28
-106 -118 -112 l-49 -3 -8 50 c-4 28 -10 64 -13 82 -5 29 -3 32 22 36 63 9
120 6 139 -8z"/>
<path d="M6040 3156 c0 -21 -6 -24 -52 -30 -42 -6 -59 -14 -90 -45 -35 -36
-38 -43 -38 -96 0 -51 3 -60 33 -90 18 -18 51 -38 73 -44 34 -9 40 -15 39 -37
0 -15 6 -29 13 -31 8 -3 12 6 12 26 0 29 3 31 34 31 75 0 127 37 146 105 10
37 10 48 -8 88 -21 48 -77 87 -123 87 -19 0 -21 4 -15 30 4 22 2 30 -9 30 -9
0 -15 -9 -15 -24z m-16 -169 c-7 -61 -13 -113 -13 -114 -4 -10 -51 0 -77 16
-59 36 -68 137 -16 184 18 17 89 36 107 30 7 -2 7 -39 -1 -116z m81 103 c24 0
73 -49 80 -79 9 -43 -12 -108 -40 -127 -13 -9 -43 -18 -66 -21 l-42 -6 7 89
c10 130 16 156 33 150 8 -3 21 -6 28 -6z"/>
<path d="M6424 3142 c-17 -11 -41 -41 -54 -66 -18 -39 -21 -59 -18 -119 7
-125 60 -192 153 -192 97 0 155 73 155 195 0 73 -22 131 -64 169 -37 34 -127
41 -172 13z m142 -21 c44 -27 67 -82 67 -161 0 -107 -47 -170 -128 -170 -72 0
-118 51 -130 146 -20 146 86 249 191 185z"/>
</g>
</svg>
