<?xml version="1.0" standalone="no"?>
<!DOCTYPE svg PUBLIC "-//W3C//DTD SVG 20010904//EN"
 "http://www.w3.org/TR/2001/REC-SVG-20010904/DTD/svg10.dtd">
<svg version="1.0" xmlns="http://www.w3.org/2000/svg"
 width="100px" height="100px" viewBox="0 0 739.000000 746.000000"
 preserveAspectRatio="xMidYMid meet">

<g transform="translate(0.000000,746.000000) scale(0.100000,-0.100000)"
fill="#fff" stroke="none">
<path d="M3527 7383 c-4 -3 -3 -11 2 -17 8 -10 18 -100 36 -301 8 -83 27 -98
-174 133 -113 128 -148 162 -167 162 l-25 0 20 -29 c17 -24 23 -59 36 -222 15
-183 15 -194 -2 -206 -14 -11 -11 -13 27 -13 42 0 43 1 24 15 -19 13 -22 31
-34 185 -7 94 -10 173 -7 176 2 3 75 -77 162 -176 86 -100 159 -179 162 -177
2 3 -4 105 -13 227 -16 215 -16 224 2 237 16 12 15 13 -12 13 -17 0 -34 -3
-37 -7z"/>
<path d="M3882 7357 c-120 -44 -184 -191 -133 -309 24 -57 98 -122 156 -138
56 -16 130 -8 183 19 42 21 52 41 52 103 0 25 6 40 18 47 13 8 9 10 -24 11
-27 0 -42 -4 -41 -12 0 -7 -1 -37 -1 -66 l-2 -53 -52 -24 c-67 -31 -82 -31
-142 3 -71 39 -108 102 -113 196 -4 61 -1 77 19 116 31 58 92 101 151 107 38
5 54 1 91 -21 25 -15 57 -43 71 -64 l26 -37 -3 40 c-3 36 -7 41 -57 67 -59 31
-138 37 -199 15z"/>
<path d="M3000 7323 c-31 -6 -51 -23 -27 -23 9 0 17 -4 17 -8 0 -5 9 -57 21
-118 11 -60 29 -152 39 -204 13 -70 15 -99 7 -108 -9 -11 -4 -12 29 -6 47 8
50 10 36 27 -12 14 -51 201 -73 345 -11 71 -11 85 2 93 11 7 10 8 -6 7 -11 0
-31 -3 -45 -5z"/>
<path d="M2553 7206 c-58 -17 -69 -23 -56 -32 9 -6 29 -53 44 -105 91 -313 91
-310 79 -324 -10 -12 -5 -12 27 -3 51 14 57 18 39 31 -8 7 -19 28 -24 47 -5
19 -13 42 -17 52 -5 12 1 18 27 23 46 10 119 49 145 77 26 28 43 70 43 106 0
42 -43 114 -81 134 -45 24 -134 22 -226 -6z m197 -15 c63 -44 80 -155 34 -211
-29 -33 -84 -66 -124 -71 -22 -4 -26 2 -48 76 -13 44 -32 108 -42 142 l-18 63
36 9 c70 18 77 19 107 14 17 -2 41 -12 55 -22z"/>
<path d="M4694 7210 c-32 -13 -64 -59 -64 -93 0 -26 16 -46 93 -122 52 -50 97
-103 100 -117 16 -63 -34 -112 -114 -112 -62 0 -95 23 -131 92 l-27 51 -6 -29
c-18 -80 125 -155 230 -120 69 23 97 117 56 184 -11 18 -54 62 -95 100 -83 74
-92 97 -53 134 17 16 36 22 69 22 61 0 102 -33 121 -98 l13 -47 11 32 c11 30
9 36 -15 64 -46 55 -132 82 -188 59z"/>
<path d="M2283 7108 c-27 -13 -26 -3 -9 -253 7 -99 11 -182 10 -183 -1 -2 -80
57 -175 132 -95 75 -176 136 -179 136 -3 0 -12 -5 -20 -10 -12 -7 -9 -15 18
-41 42 -41 185 -334 179 -366 -5 -27 -4 -27 33 -8 34 17 39 27 13 23 -14 -2
-34 30 -90 142 -39 80 -69 147 -67 149 2 2 56 -39 121 -91 65 -51 133 -105
152 -118 l34 -24 -7 115 c-3 63 -9 161 -11 219 l-5 105 86 -172 c72 -144 84
-175 74 -188 -17 -21 -2 -18 50 10 32 17 39 24 24 25 -17 0 -37 34 -113 191
-51 105 -90 197 -87 205 6 16 -1 17 -31 2z"/>
<path d="M5147 7010 c-73 -22 -142 -102 -158 -182 -30 -148 81 -277 239 -278
34 0 62 2 62 4 0 2 3 12 7 21 5 15 3 16 -16 5 -31 -16 -122 -16 -157 1 -15 8
-42 34 -59 59 -25 37 -30 57 -33 115 -3 62 0 77 25 125 18 34 45 66 72 85 38
26 51 30 113 30 69 0 70 0 109 -42 23 -25 44 -60 51 -87 10 -39 13 -43 25 -28
22 30 14 52 -40 106 -38 39 -64 55 -99 64 -53 14 -100 14 -141 2z"/>
<path d="M1713 6805 c-26 -23 -27 -24 -7 -25 16 0 43 -31 104 -117 102 -143
117 -179 102 -231 -37 -122 -194 -149 -260 -44 -9 15 -50 74 -91 130 -45 63
-71 108 -67 118 5 12 1 12 -25 -3 -35 -20 -61 -47 -38 -38 10 4 46 -38 112
-130 54 -74 109 -142 122 -151 45 -29 99 -29 160 0 59 29 87 61 102 116 16 56
-6 107 -101 240 -64 88 -85 126 -81 140 8 26 2 25 -32 -5z"/>
<path d="M3445 6823 c-754 -61 -1455 -390 -1975 -929 -473 -490 -755 -1078
-852 -1774 -17 -123 -17 -612 0 -736 81 -598 307 -1127 671 -1573 222 -272
509 -522 801 -699 358 -218 799 -369 1230 -424 156 -19 593 -17 745 5 709 100
1296 388 1786 877 292 292 495 591 674 995 20 47 91 251 120 345 30 102 78
343 97 490 16 134 17 560 0 700 -60 505 -245 993 -532 1406 -201 288 -490 578
-775 775 -294 204 -660 372 -1000 458 -129 32 -351 70 -480 81 -110 9 -414 11
-510 3z m673 -42 c275 -44 535 -115 712 -193 446 -197 702 -368 1011 -677 520
-521 822 -1165 890 -1902 16 -173 6 -529 -20 -689 -59 -368 -142 -633 -296
-940 -353 -707 -973 -1253 -1720 -1517 -332 -117 -659 -173 -1015 -173 -794 0
-1554 306 -2118 854 -330 320 -515 593 -720 1056 -55 125 -132 383 -165 555
-48 244 -52 293 -52 595 0 303 9 399 59 637 104 493 335 960 667 1348 237 277
534 520 848 694 372 207 743 321 1221 375 19 2 154 3 300 1 213 -2 291 -7 398
-24z"/>
<path d="M4458 5265 c-256 -65 -499 -286 -618 -563 -59 -136 -90 -333 -90
-568 l0 -114 -75 0 -75 0 0 165 0 165 -70 0 -70 0 0 -156 0 -156 -27 6 c-79
19 -168 89 -206 161 -31 61 -30 165 4 230 42 83 133 128 224 111 31 -6 34 -9
25 -26 -24 -44 3 -90 52 -90 46 0 71 47 48 91 -25 46 -153 73 -240 49 -67 -18
-133 -88 -155 -164 -48 -163 35 -316 206 -381 l71 -27 -5 -482 c-5 -504 -9
-561 -54 -721 -65 -236 -228 -421 -439 -501 -80 -30 -102 -34 -194 -41 -137
-10 -317 33 -440 104 -36 21 -101 74 -145 118 -128 128 -199 287 -212 476 -26
384 282 757 650 786 66 5 77 9 77 25 0 16 -6 18 -57 12 -280 -30 -509 -194
-632 -454 -178 -376 -18 -835 354 -1015 119 -58 186 -75 326 -82 238 -12 416
62 605 251 165 167 253 338 292 570 14 86 16 164 14 519 l-3 417 74 0 74 0 6
-112 c4 -62 7 -247 7 -410 l0 -298 70 0 70 0 0 410 0 410 104 0 c115 0 155
-10 163 -40 10 -39 21 -19 25 46 4 81 -4 96 -30 63 -19 -23 -27 -24 -143 -27
l-122 -4 6 239 c4 131 11 261 16 288 5 28 12 65 15 82 12 67 59 200 89 253
192 347 594 465 962 285 304 -150 465 -507 379 -843 -30 -117 -133 -292 -216
-368 -126 -114 -268 -179 -421 -193 -47 -4 -72 -11 -75 -20 -8 -25 149 -8 245
26 119 43 187 87 288 188 128 128 186 235 221 405 19 98 15 248 -10 345 -23
86 -97 230 -155 301 -89 109 -249 210 -396 250 -84 23 -312 28 -387 9z"/>
<path d="M5622 6813 c2 -22 -237 -360 -256 -365 -8 -2 2 -14 24 -30 29 -20 37
-22 33 -9 -2 9 14 43 37 76 23 33 53 77 67 98 14 20 30 37 35 37 4 0 32 -37
62 -82 29 -46 60 -89 69 -97 10 -7 17 -18 17 -23 0 -16 -90 -137 -105 -140 -8
-2 1 -14 24 -30 37 -27 38 -27 35 -5 -5 31 235 363 260 360 19 -1 17 1 -28 36
l-29 22 -12 -33 c-6 -18 -38 -70 -71 -116 l-59 -83 -33 38 c-18 21 -53 69 -78
107 l-44 69 46 63 c32 45 52 64 67 64 22 0 22 1 -3 21 -45 36 -59 41 -58 22z"/>
<path d="M1259 6454 c-18 -19 -27 -33 -18 -29 18 7 224 -207 253 -262 44 -86
-14 -154 -101 -118 -26 11 -40 12 -47 5 -19 -19 16 -31 77 -27 72 4 97 26 104
90 8 72 -10 105 -127 230 -71 76 -107 123 -104 132 9 23 1 18 -37 -21z"/>
<path d="M5992 6392 c-98 -35 -156 -118 -155 -223 2 -180 186 -293 344 -211
171 89 169 329 -3 415 -74 37 -120 42 -186 19z m171 -26 c74 -27 107 -80 107
-170 -1 -123 -102 -236 -213 -236 -87 0 -138 29 -168 95 -35 76 -16 170 48
245 62 72 142 96 226 66z"/>
<path d="M6405 5941 c-118 -29 -199 -148 -180 -263 24 -144 164 -236 300 -198
58 16 128 78 150 132 22 53 22 141 2 190 -23 55 -91 115 -150 133 -54 16 -75
17 -122 6z m178 -53 c112 -63 108 -223 -7 -325 -58 -51 -115 -67 -185 -52 -84
18 -141 88 -141 173 0 43 41 125 81 163 79 74 166 88 252 41z"/>
<path d="M792 5764 c-26 -18 -52 -65 -52 -94 0 -92 126 -146 190 -81 52 51 52
111 0 162 -23 23 -37 29 -72 29 -24 0 -54 -7 -66 -16z m133 -36 c34 -40 33
-82 -4 -119 -78 -77 -207 21 -145 110 21 29 68 49 100 43 13 -2 35 -18 49 -34z"/>
<path d="M6859 5494 c0 -15 -44 -41 -189 -113 -108 -53 -196 -91 -205 -88 -8
4 -15 3 -15 0 0 -5 118 -243 124 -250 1 -1 12 0 24 4 l23 6 -23 11 c-20 9
-117 174 -106 179 1 1 89 45 195 98 141 70 196 93 208 86 13 -7 12 0 -6 35
-27 54 -29 56 -30 32z"/>
<path d="M317 5143 c-3 -5 28 -22 69 -37 43 -17 74 -34 74 -43 0 -7 -7 -30
-15 -50 -18 -43 -20 -114 -2 -135 23 -29 61 -48 96 -48 44 0 89 46 116 120 11
30 21 58 23 61 3 7 -282 122 -332 135 -13 3 -26 2 -29 -3z m260 -110 c40 -16
73 -30 73 -33 0 -3 -15 -34 -33 -70 -37 -75 -64 -89 -119 -61 -47 23 -56 57
-33 130 10 34 23 61 29 61 6 0 44 -12 83 -27z"/>
<path d="M200 4838 c0 -7 27 -30 60 -52 33 -21 60 -39 60 -41 0 -1 -4 -15 -10
-31 -5 -16 -14 -48 -20 -71 l-11 -43 -49 0 c-27 0 -61 -5 -77 -12 l-28 -12 29
-4 c29 -4 253 13 342 25 24 3 44 11 44 17 0 6 -24 27 -53 46 -28 19 -102 70
-163 112 -61 43 -114 78 -118 78 -3 0 -6 -6 -6 -12z m277 -220 c-12 -3 -55 -6
-94 -7 -80 -1 -81 0 -62 60 6 19 13 40 15 47 2 8 31 -6 83 -40 69 -46 77 -54
58 -60z"/>
<path d="M6791 4686 c-70 -39 -67 -151 6 -204 l28 -20 -23 -24 c-21 -24 -28
-48 -16 -61 3 -3 20 10 37 30 32 36 36 37 106 17 16 -5 22 -4 17 4 -3 6 -20
13 -36 17 -17 4 -30 10 -30 14 0 3 31 37 68 74 l69 68 48 -25 c91 -49 156 -22
141 59 -13 70 -93 87 -164 35 l-41 -29 -57 29 c-61 32 -114 38 -153 16z m151
-37 l43 -20 -74 -76 c-65 -66 -77 -74 -96 -65 -31 14 -58 74 -46 105 14 36 68
77 101 77 16 0 49 -9 72 -21z m234 0 c27 -25 21 -57 -13 -70 -28 -10 -66 -3
-105 19 l-27 16 42 28 c50 33 73 35 103 7z"/>
<path d="M182 4413 c-41 -8 -99 -74 -106 -119 -8 -47 17 -124 40 -124 18 0 17
10 -1 34 -8 11 -15 37 -15 58 0 91 58 134 170 126 88 -7 143 -37 165 -90 22
-56 19 -83 -15 -122 -19 -22 -27 -37 -20 -41 28 -17 70 54 70 118 0 92 -81
158 -199 163 -36 1 -76 0 -89 -3z"/>
<path d="M40 3805 l0 -185 195 0 c107 0 195 4 195 9 0 11 -125 21 -257 21
l-103 0 0 70 0 70 180 0 c113 0 180 4 180 10 0 6 -6 11 -12 11 -35 4 -75 5
-205 7 l-143 2 0 76 0 77 180 -8 c161 -6 180 -5 180 9 0 14 -23 16 -195 16
l-195 0 0 -185z"/>
<path d="M6840 3925 c0 -49 2 -56 13 -43 8 11 37 17 95 21 l82 6 0 -93 c0 -66
-4 -96 -12 -99 -7 -3 5 -6 27 -6 32 0 36 2 23 10 -15 8 -18 25 -18 99 l0 90
125 0 125 0 0 -102 c0 -72 -5 -112 -15 -132 -13 -25 -13 -28 1 -22 9 3 20 6
25 6 5 0 9 31 9 68 0 109 -12 254 -20 241 -6 -8 -71 -13 -220 -17 -199 -5
-214 -4 -227 13 -11 17 -13 12 -13 -40z"/>
<path d="M6830 3493 c0 -33 3 -43 9 -34 8 13 37 13 221 0 187 -13 214 -17 226
-34 14 -18 14 -18 14 2 0 11 3 36 7 54 6 31 5 33 -11 20 -18 -15 -36 -14 -301
9 -71 6 -134 16 -139 21 -19 18 -26 8 -26 -38z"/>
<path d="M243 3432 c-116 -17 -183 -30 -183 -38 0 -6 30 -25 68 -41 37 -17
121 -55 186 -84 l120 -54 -169 -20 c-111 -13 -170 -24 -173 -32 -5 -16 20 -16
108 -3 36 6 99 15 140 20 123 17 140 20 140 31 0 10 -22 21 -247 119 -67 30
-121 55 -120 56 1 1 60 9 132 18 179 23 195 26 195 42 0 8 -3 14 -7 13 -5 -1
-90 -13 -190 -27z"/>
<path d="M7256 3233 c3 -21 1 -58 -3 -83 -8 -42 -11 -45 -38 -44 -51 1 -368
64 -397 79 -26 13 -28 12 -28 -8 0 -12 -3 -33 -6 -47 -4 -18 -3 -21 4 -11 11
16 4 16 277 -34 83 -15 153 -31 158 -34 12 -11 -12 -114 -33 -143 -22 -29 -15
-37 12 -15 18 14 85 335 75 361 -12 30 -25 16 -21 -21z"/>
<path d="M326 2991 c-99 -26 -181 -52 -184 -59 -5 -16 -1 -15 88 8 41 10 75
18 75 17 1 -1 9 -29 19 -62 29 -97 76 -130 151 -105 46 15 65 44 65 98 0 44
-18 132 -29 143 -3 4 -87 -14 -185 -40z m182 -26 c20 -74 16 -111 -14 -134
-34 -27 -88 -27 -114 -1 -17 17 -57 127 -48 135 3 3 140 41 158 44 3 1 11 -19
18 -44z"/>
<path d="M6711 2838 c-14 -40 -14 -40 7 -27 16 10 49 1 185 -46 92 -32 167
-59 167 -61 0 -2 -60 -21 -132 -44 -73 -23 -177 -55 -230 -72 -54 -17 -98 -33
-98 -37 0 -4 95 -40 210 -80 172 -60 210 -77 210 -92 0 -27 17 -23 24 5 3 13
9 32 12 43 6 15 4 16 -7 6 -20 -20 -32 -17 -208 44 l-164 57 119 37 c65 20
171 53 235 73 93 29 118 40 122 57 5 18 2 20 -23 14 -35 -8 -376 108 -402 136
-15 18 -17 18 -27 -13z"/>
<path d="M540 2660 c-25 -11 -99 -40 -165 -66 -66 -25 -121 -47 -122 -48 -9
-8 57 -144 80 -168 60 -60 177 -14 177 70 0 10 -9 45 -20 77 -11 32 -20 63
-20 69 0 6 34 24 75 39 41 16 75 32 75 38 0 14 -31 10 -80 -11z m-78 -121 c25
-66 23 -125 -4 -143 -63 -40 -106 -24 -145 55 -38 77 -36 80 42 110 39 15 75
26 80 25 6 -2 18 -23 27 -47z"/>
<path d="M6481 2285 c-64 -120 -70 -137 -57 -150 20 -21 24 -19 19 9 -4 21 44
131 84 193 l15 23 67 -37 c36 -20 70 -40 75 -44 13 -11 -72 -159 -92 -159 -12
-1 -10 -5 8 -15 32 -18 41 -19 34 -1 -4 10 54 145 71 164 2 2 53 -23 113 -55
l111 -58 -47 -89 c-26 -48 -57 -96 -69 -106 -22 -17 -21 -30 2 -30 9 0 155
256 155 273 0 3 -7 4 -15 1 -15 -6 -371 178 -391 202 -9 11 -27 -16 -83 -121z"/>
<path d="M790 2161 c0 -5 9 -12 19 -16 11 -3 34 -22 50 -41 41 -46 42 -94 5
-123 -40 -31 -63 -26 -110 24 -52 57 -70 58 -39 3 49 -85 24 -158 -52 -158
-68 1 -119 68 -110 147 3 32 1 43 -9 43 -21 0 -18 -97 5 -140 44 -84 137 -103
194 -40 16 18 27 42 27 60 0 28 2 29 26 19 35 -13 93 16 113 56 23 46 -7 115
-69 158 -27 19 -50 22 -50 8z"/>
<path d="M6313 1981 c-48 -35 -83 -102 -83 -158 0 -52 36 -98 89 -114 49 -15
87 -3 195 62 89 54 105 58 129 32 26 -30 30 -68 11 -108 -23 -48 -53 -66 -121
-74 l-57 -6 27 -18 c25 -16 30 -16 64 -2 72 30 113 88 113 160 0 27 -8 44 -29
66 -47 47 -67 43 -214 -43 -81 -47 -107 -53 -145 -34 -63 32 -64 122 -3 186
30 32 46 40 89 46 43 5 50 9 41 20 -19 23 -63 16 -106 -15z"/>
<path d="M955 1823 c-35 -10 -122 -70 -143 -100 -106 -149 33 -316 193 -232
118 62 169 162 131 253 -25 60 -112 98 -181 79z m120 -45 c67 -52 65 -139 -4
-207 -71 -70 -146 -91 -210 -59 -90 44 -81 159 18 237 49 39 76 50 127 50 28
1 50 -6 69 -21z"/>
<path d="M6072 1652 c-37 -11 -91 -60 -113 -104 -41 -81 -9 -165 72 -189 40
-13 100 2 189 46 71 35 97 38 120 15 26 -26 26 -75 0 -117 -27 -46 -54 -56
-123 -50 l-60 5 26 -26 c24 -24 28 -25 67 -13 51 15 106 69 121 121 11 35 10
46 -4 76 -31 65 -80 67 -215 9 -94 -41 -131 -44 -168 -12 -21 18 -27 32 -27
64 0 84 68 146 160 146 41 0 42 1 26 19 -17 19 -32 21 -71 10z"/>
<path d="M1166 1401 c-92 -92 -134 -141 -126 -146 8 -5 38 18 81 61 l69 69 72
-73 73 -72 -70 -70 c-63 -63 -80 -91 -44 -74 26 13 263 264 256 271 -4 4 -34
-20 -67 -52 l-60 -59 -70 69 c-39 38 -70 74 -70 79 0 6 25 36 56 67 31 31 52
59 47 62 -5 3 -71 -56 -147 -132z"/>
<path d="M1525 1124 c-39 -151 -41 -157 -72 -172 -29 -14 -34 -14 -58 2 -33
22 -44 13 -19 -15 30 -33 75 -20 229 69 77 45 149 87 160 95 27 20 10 35 -18
17 -66 -41 -229 -132 -231 -129 -2 2 11 57 29 121 40 139 43 160 30 165 -6 2
-28 -63 -50 -153z"/>
<path d="M5511 984 c-31 -22 -52 -75 -45 -113 4 -18 22 -45 42 -62 31 -28 40
-31 81 -26 96 11 134 109 70 182 -27 31 -37 35 -78 35 -27 0 -56 -7 -70 -16z
m98 -5 c71 -25 81 -137 14 -168 -59 -27 -123 2 -139 63 -8 32 22 86 57 103 30
16 29 16 68 2z"/>
<path d="M1997 918 c-116 -204 -164 -297 -153 -301 7 -3 25 18 40 47 16 28 37
65 48 83 l19 32 34 -16 c33 -16 33 -16 39 -102 8 -104 17 -153 32 -158 7 -2 8
18 3 64 -4 38 -9 92 -12 122 l-4 53 69 45 c47 31 77 43 96 41 19 -2 27 2 27
12 0 31 -49 21 -123 -25 -41 -25 -78 -45 -84 -45 -5 0 -23 8 -38 17 l-29 16
40 73 c23 42 36 75 30 78 -5 4 -21 -13 -34 -36z"/>
<path d="M2355 749 c-77 -45 -125 -131 -125 -228 0 -62 1 -65 44 -107 39 -40
48 -44 92 -44 57 0 100 22 138 72 75 99 73 234 -6 291 -31 23 -115 32 -143 16z
m129 -36 c36 -26 50 -58 49 -111 -1 -52 -31 -126 -68 -166 -12 -13 -41 -30
-64 -37 -36 -11 -47 -10 -76 4 -45 21 -75 71 -75 122 0 77 65 182 130 208 24
10 77 0 104 -20z"/>
<path d="M4820 506 c0 -128 4 -206 10 -206 15 0 23 47 17 100 l-6 48 72 27
c70 26 72 26 87 8 68 -84 81 -96 89 -88 9 10 -233 305 -257 313 -9 3 -12 -44
-12 -202z m88 88 c29 -34 52 -66 52 -71 0 -8 -93 -43 -113 -43 -4 0 -7 44 -7
97 0 53 4 93 8 88 5 -6 32 -38 60 -71z"/>
<path d="M2740 636 c0 -3 -20 -85 -45 -182 -29 -113 -42 -181 -36 -187 10 -10
13 -3 63 196 18 72 34 125 35 117 1 -8 6 -62 12 -120 19 -175 22 -190 34 -190
7 0 50 57 95 126 46 69 85 124 87 122 2 -2 -14 -71 -35 -153 -45 -170 -44
-165 -27 -165 7 0 29 69 58 184 42 168 45 185 29 189 -13 3 -39 -28 -108 -131
-104 -155 -95 -158 -112 47 -6 74 -13 138 -16 143 -5 8 -34 11 -34 4z"/>
<path d="M4500 610 c-63 -17 -116 -30 -117 -30 -2 0 -3 -4 -3 -10 0 -14 37
-12 82 4 l37 13 15 -46 c9 -25 26 -93 40 -151 30 -129 44 -166 56 -154 6 6 -8
74 -35 178 -24 93 -42 173 -39 177 2 4 29 13 59 19 31 6 53 16 50 21 -9 13
-16 12 -145 -21z"/>
<path d="M4142 540 c-29 -4 -56 -11 -59 -14 -6 -5 31 -297 44 -353 3 -13 11
-23 17 -23 10 0 10 17 1 81 -9 58 -9 82 -1 84 6 2 37 9 68 15 73 14 108 47
108 101 0 94 -54 128 -178 109z m124 -35 c12 -8 24 -28 27 -45 14 -66 -28
-106 -118 -112 l-49 -3 -8 55 c-4 30 -10 67 -12 82 -5 23 -1 27 22 31 62 9
119 6 138 -8z"/>
<path d="M3320 506 c0 -21 -6 -24 -52 -30 -42 -6 -59 -14 -90 -45 -35 -36 -38
-43 -38 -96 0 -51 3 -60 33 -90 18 -18 51 -38 73 -44 34 -9 40 -15 39 -37 0
-15 6 -29 13 -31 8 -3 12 6 12 26 0 30 2 31 40 31 72 0 119 36 140 106 11 36
10 47 -8 87 -21 48 -77 87 -123 87 -19 0 -21 4 -15 30 4 22 2 30 -9 30 -9 0
-15 -9 -15 -24z m-8 -59 c2 -17 -14 -194 -18 -209 -12 -41 -92 -8 -119 48 -21
44 -14 93 18 129 29 32 116 56 119 32z m98 -17 c78 -40 76 -172 -4 -205 -20
-8 -47 -15 -62 -15 l-27 0 7 88 c11 144 14 153 45 146 14 -4 33 -10 41 -14z"/>
<path d="M3704 492 c-17 -11 -41 -41 -54 -66 -18 -39 -21 -59 -18 -119 5 -90
26 -135 81 -171 51 -33 107 -32 157 4 91 65 95 258 6 339 -37 34 -127 41 -172
13z m142 -21 c44 -27 67 -82 67 -161 0 -107 -47 -170 -128 -170 -72 0 -118 51
-130 146 -20 146 86 249 191 185z"/>
</g>
</svg>
