<?xml version="1.0" standalone="no"?>
<!DOCTYPE svg PUBLIC "-//W3C//DTD SVG 20010904//EN"
 "http://www.w3.org/TR/2001/REC-SVG-20010904/DTD/svg10.dtd">
<svg version="1.0" xmlns="http://www.w3.org/2000/svg"
 width="35px" height="35px" viewBox="0 0 512.000000 512.000000"
 preserveAspectRatio="xMidYMid meet">

<g transform="translate(0.000000,512.000000) scale(0.100000,-0.100000)"
fill="#000" stroke="none">
<path d="M1186 4674 c-351 -76 -626 -336 -728 -690 l-23 -79 0 -1345 0 -1345
23 -80 c95 -332 344 -580 678 -677 l79 -23 1350 0 1350 0 90 28 c324 101 562
345 657 673 l23 79 0 1345 0 1345 -23 79 c-95 328 -333 572 -657 673 l-90 28
-1330 2 c-1144 1 -1340 0 -1399 -13z m2716 -169 c153 -32 270 -97 388 -215
118 -118 183 -235 215 -388 21 -99 22 -2584 1 -2683 -65 -303 -319 -553 -620
-608 -41 -8 -455 -11 -1330 -11 -1372 0 -1331 -1 -1466 53 -103 42 -171 88
-260 177 -118 118 -183 235 -215 388 -22 100 -22 2584 0 2684 32 153 97 270
215 388 117 116 235 183 384 215 93 20 2592 21 2688 0z"/>
<path d="M3911 4269 c-165 -32 -265 -206 -217 -374 24 -81 106 -163 190 -189
143 -45 290 22 354 162 21 47 24 64 20 131 -5 88 -27 137 -85 193 -67 65 -170
96 -262 77z m145 -203 c28 -28 34 -42 34 -76 0 -52 -25 -95 -66 -115 -43 -20
-73 -19 -112 5 -70 43 -80 136 -20 192 25 23 39 28 80 28 44 0 54 -4 84 -34z"/>
<path d="M2365 3930 c-576 -90 -1026 -509 -1156 -1080 -26 -111 -36 -345 -20
-463 71 -531 435 -972 941 -1140 153 -50 232 -62 430 -62 143 0 204 4 269 19
587 128 1017 586 1101 1171 12 90 12 280 0 370 -83 578 -504 1033 -1080 1167
-98 22 -386 33 -485 18z m395 -176 c584 -100 1010 -604 1010 -1194 0 -430
-228 -826 -600 -1045 -727 -427 -1661 10 -1804 845 -112 651 333 1277 989
1394 110 19 292 19 405 0z"/>
<path d="M2394 3325 c-149 -32 -267 -99 -384 -215 -158 -159 -230 -329 -230
-550 0 -221 72 -391 230 -550 159 -158 329 -230 550 -230 221 0 391 72 550
230 158 159 230 329 230 550 0 221 -72 391 -230 550 -118 118 -235 183 -388
215 -83 18 -247 18 -328 0z m311 -170 c216 -55 395 -234 450 -450 19 -76 19
-214 0 -290 -55 -216 -234 -395 -450 -450 -76 -19 -214 -19 -290 0 -216 55
-395 234 -450 450 -19 76 -19 214 0 290 54 213 233 394 445 449 73 19 221 20
295 1z"/>
</g>
</svg>
