<?xml version="1.0" standalone="no"?>
<!DOCTYPE svg PUBLIC "-//W3C//DTD SVG 20010904//EN"
 "http://www.w3.org/TR/2001/REC-SVG-20010904/DTD/svg10.dtd">
<svg version="1.0" xmlns="http://www.w3.org/2000/svg"
 width="35px" height="35px" viewBox="0 0 50.000000 50.000000"
 preserveAspectRatio="xMidYMid meet">

<g transform="translate(0.000000,50.000000) scale(0.100000,-0.100000)"
fill="#000" stroke="none">
<path d="M151 456 c-24 -8 -54 -24 -66 -36 -47 -44 -58 -196 -20 -270 9 -18
30 -37 46 -43 26 -10 29 -16 29 -54 0 -24 4 -43 8 -43 4 0 23 15 41 34 29 30
40 34 101 39 133 11 165 49 165 194 0 102 -13 131 -74 166 -42 25 -170 32
-230 13z m213 -27 c49 -23 68 -60 73 -136 9 -133 -27 -180 -146 -190 -57 -5
-79 -11 -102 -30 l-29 -25 0 26 c0 19 -10 32 -39 51 -44 27 -61 68 -61 140 1
137 60 189 205 182 39 -2 83 -10 99 -18z"/>
<path d="M230 391 c0 -6 14 -11 31 -11 20 0 40 -10 60 -29 19 -20 29 -40 29
-60 0 -17 5 -31 11 -31 21 0 3 81 -24 107 -26 27 -107 45 -107 24z"/>
<path d="M130 366 c-29 -36 38 -145 120 -193 62 -38 72 -39 95 -17 20 20 16
32 -18 58 -21 15 -30 17 -39 8 -19 -19 -40 -14 -70 15 -30 29 -35 52 -16 71 9
9 7 18 -9 39 -24 33 -45 39 -63 19z"/>
<path d="M240 362 c0 -4 15 -12 33 -17 24 -8 34 -18 42 -42 11 -39 25 -43 25
-8 0 14 -11 37 -25 50 -22 23 -75 35 -75 17z"/>
<path d="M250 331 c0 -5 9 -11 20 -14 11 -3 20 -12 20 -21 0 -9 5 -16 10 -16
15 0 12 27 -6 44 -17 17 -44 22 -44 7z"/>
</g>
</svg>
